<svg width="18" height="18" t="1569813328747" class="icon" viewBox="0 0 1024 1024" version="1.1" xmlns="http://www.w3.org/2000/svg" p-id="17643" width="200" height="200"><path d="M921.6 102.4c28.672 0 52.907008 10.24 72.704 30.72 19.796992 20.48 29.696 44.372992 29.696 71.68 0 0 0 614.4 0 614.4 0 28.672-9.899008 52.907008-29.696 72.704-19.796992 19.796992-44.032 29.696-72.704 29.696 0 0-819.2 0-819.2 0-27.307008 0-51.2-9.899008-71.68-29.696-20.48-19.796992-30.72-44.032-30.72-72.704 0 0 0-614.4 0-614.4 0-27.307008 10.24-51.2 30.72-71.68 20.48-20.48 44.372992-30.72 71.68-30.72 0 0 819.2 0 819.2 0 0 0 0 0 0 0m-686.08 96.256c-10.923008 0-20.139008 3.755008-27.648 11.264-7.508992 7.508992-11.264 16.043008-11.264 25.6 0 10.923008 3.755008 20.139008 11.264 27.648 7.508992 7.508992 16.724992 11.264 27.648 11.264 25.940992 0 38.912-12.971008 38.912-38.912 0-10.923008-3.755008-19.796992-11.264-26.624-7.508992-6.827008-16.724992-10.24-27.648-10.24 0 0 0 0 0 0m-141.312 36.864c0 10.923008 3.755008 20.139008 11.264 27.648 7.508992 7.508992 16.724992 11.264 27.648 11.264 25.940992 0 38.912-12.971008 38.912-38.912 0-10.923008-3.755008-19.796992-11.264-26.624-7.508992-6.827008-16.724992-10.24-27.648-10.24-10.923008 0-20.139008 3.755008-27.648 11.264-7.508992 7.508992-11.264 16.043008-11.264 25.6 0 0 0 0 0 0m829.44 583.68c0 0 0-471.04 0-471.04 0 0-821.248 0-821.248 0 0 0 0 471.04 0 471.04 0 0 821.248 0 821.248 0 0 0 0 0 0 0m0-552.96c0 0 0-61.44 0-61.44 0 0-616.448 0-616.448 0 0 0 0 61.44 0 61.44 0 0 616.448 0 616.448 0 0 0 0 0 0 0" p-id="17644"></path></svg>