<svg width="30" t="1576052806105" class="icon" viewBox="0 0 1024 1024" version="1.1" xmlns="http://www.w3.org/2000/svg" p-id="2898" width="200" height="200"><path d="M128 0h768c72.533333 0 128 55.466667 128 128v768c0 72.533333-55.466667 128-128 128H128c-72.533333 0-128-55.466667-128-128V128c0-72.533333 55.466667-128 128-128z" fill-opacity=".01" opacity=".01" p-id="2899"></path><path d="M618.666667 307.2l46.933333 46.933333L379.733333 640c-8.533333 8.533333-8.533333 29.866667 0 38.4l12.8 12.8c8.533333 8.533333 29.866667 8.533333 38.4 0l285.866667-285.866667c29.866667-29.866667 29.866667-85.333333 0-115.2l-29.866667-29.866666c-29.866667-29.866667-85.333333-29.866667-115.2 0l-302.933333 302.933333c-51.2 51.2-51.2 132.266667 0 183.466667l51.2 51.2c51.2 51.2 132.266667 51.2 183.466667 0l302.933333-302.933334 46.933333 46.933334-302.933333 302.933333c-76.8 76.8-196.266667 76.8-273.066667 0l-51.2-51.2c-76.8-76.8-76.8-196.266667 0-273.066667L529.066667 213.333333c55.466667-55.466667 149.333333-55.466667 204.8 0l29.866666 29.866667c55.466667 55.466667 55.466667 149.333333 0 204.8l-285.866666 285.866667c-34.133333 34.133333-93.866667 34.133333-128 0l-12.8-12.8c-34.133333-34.133333-34.133333-93.866667 0-128l281.6-285.866667z" p-id="2900"></path></svg>
