<svg t="1607953393982" class="icon" width="17" height="17" style="transform: rotateY(180deg);margin-top: -2px;" viewBox="0 0 1024 1024" version="1.1" xmlns="http://www.w3.org/2000/svg" p-id="15932" xmlns:xlink="http://www.w3.org/1999/xlink" width="200" height="200"><defs><style type="text/css"></style></defs><path d="M903.68 975.36H128c-46.08 0-81.92-38.4-81.92-81.92V350.72c0-46.08 35.84-81.92 81.92-81.92h64v87.04H133.12v532.48h765.44V355.84H588.8v-87.04h314.88c46.08 0 81.92 35.84 81.92 81.92v542.72c2.56 43.52-35.84 81.92-81.92 81.92z" p-id="15933"></path><path d="M391.68 765.44c-25.6 0-48.64-10.24-64-30.72l-87.04-104.96c-12.8-15.36-20.48-33.28-20.48-53.76V153.6c0-46.08 35.84-81.92 81.92-81.92h212.48c46.08 0 81.92 35.84 81.92 79.36 0 23.04-20.48 43.52-43.52 43.52-20.48 0-38.4-15.36-43.52-35.84h-204.8v417.28l81.92 97.28 81.92-97.28V276.48l-48.64 2.56v220.16c0 23.04-20.48 43.52-43.52 43.52s-43.52-20.48-43.52-43.52v-225.28c0-43.52 35.84-79.36 79.36-81.92l58.88-2.56c28.16-2.56 53.76 12.8 71.68 35.84 10.24 12.8 15.36 30.72 15.36 48.64v307.2c0 20.48-7.68 38.4-20.48 53.76l-87.04 104.96c-12.8 15.36-35.84 25.6-58.88 25.6z" p-id="15934"></path></svg>